# xmcd CD database file
#
# Track frame offsets:
#	150
#	22572
#	41077
#	62158
#	78183
#	100465
#	125915
#	148368
#	172386
#	194320
#	217090
#	241590
#	267816
#
# Disc length: 3902 seconds
#
# Revision: 0
# Processed by: cddbd v1.5.1PL0 Copyright (c) Steve Scherf et al.
# Submitted via: CDex 1.50Beta7
#
DISCID=c00f3c0d
DTITLE=Paulito FG - Te desseo suerte
DYEAR=2004
DGENRE=Salsa
TTITLE0=Me Gusta Tanto
TTITLE1=Fue Un Error
TTITLE2=El Tumbao De Lola
TTITLE3=Te Desseo Suerte (balada)
TTITLE4=Preguntela a ella
TTITLE5=Hay Algo En Ti
TTITLE6=Hace Tiempo
TTITLE7=Esa Amiga
TTITLE8=Que Mania
TTITLE9=Jura
TTITLE10=Te Desseo Suerte (Salsa)
TTITLE11=El Mas Buscado
TTITLE12=Bonus
EXTD=YEAR: 2004
EXTT0=
EXTT1=
EXTT2=
EXTT3=
EXTT4=
EXTT5=
EXTT6=
EXTT7=
EXTT8=
EXTT9=
EXTT10=
EXTT11=
EXTT12=
PLAYORDER=
